<svg width="469" height="377" viewBox="0 0 469 377" fill="none" xmlns="http://www.w3.org/2000/svg">
<rect x="0.134766" y="0.918701" width="468.73" height="376" rx="16" fill="url(#paint0_linear_412_4445)"/>
<rect x="54.4951" y="88.9187" width="360" height="90" rx="12" fill="white"/>
<path fill-rule="evenodd" clip-rule="evenodd" d="M100.486 121.288H81.66C80.0404 121.288 78.7269 122.599 78.7247 124.219V143.017C78.7216 143.798 79.0294 144.547 79.5802 145.1C80.131 145.653 80.8794 145.964 81.66 145.964H100.486C101.266 145.963 102.013 145.652 102.563 145.099C103.113 144.546 103.42 143.797 103.417 143.017V124.219C103.415 122.601 102.104 121.29 100.486 121.288ZM89.3739 139.061C89.3728 139.322 89.2679 139.572 89.0824 139.755C88.8968 139.939 88.6458 140.041 88.3849 140.038H84.2708C83.7327 140.036 83.2977 139.599 83.2977 139.061V126.818C83.2977 126.28 83.7327 125.843 84.2708 125.841H88.3849C88.9236 125.843 89.3599 126.279 89.362 126.818L89.3739 139.061ZM98.868 133.44C98.868 133.701 98.7634 133.952 98.5776 134.135C98.3918 134.319 98.1402 134.42 97.879 134.417H93.7649C93.2262 134.415 92.7899 133.979 92.7878 133.44V126.818C92.7899 126.279 93.2262 125.843 93.7649 125.841H97.879C98.4171 125.843 98.8521 126.28 98.8521 126.818L98.868 133.44Z" fill="url(#paint1_linear_412_4445)"/>
<path d="M129.89 123.095V127.866H124.237V145.964H118.786V127.866H113.133V123.095H129.89Z" fill="#293856"/>
<path d="M136.828 145.964H131.788V128.163H136.828V131.573C137.786 129.172 139.317 127.744 142.042 127.918V133.191C138.482 132.914 136.828 133.784 136.828 136.636V145.964Z" fill="#293856"/>
<path d="M169.575 146.103C166.272 146.103 164.195 144.52 164.195 140.778V121.288H169.27V140.082C169.27 141.162 169.982 141.546 170.852 141.546C171.103 141.551 171.355 141.539 171.604 141.51V145.897C170.941 146.059 170.257 146.128 169.575 146.103Z" fill="#293856"/>
<path d="M180.16 146.103C176.857 146.103 174.777 144.52 174.777 140.778V121.288H179.852V140.082C179.852 141.162 180.568 141.546 181.454 141.546C181.704 141.551 181.954 141.539 182.202 141.51V145.897C181.534 146.06 180.847 146.129 180.16 146.103Z" fill="#293856"/>
<path d="M184.635 137.055C184.635 131.557 187.8 127.795 193.251 127.795C198.702 127.795 201.8 131.545 201.8 137.055C201.8 142.566 198.666 146.383 193.251 146.383C187.835 146.383 184.635 142.518 184.635 137.055ZM189.576 137.055C189.576 139.733 190.699 141.858 193.251 141.858C195.803 141.858 196.863 139.733 196.863 137.055C196.863 134.377 195.774 132.308 193.251 132.308C190.727 132.308 189.576 134.373 189.576 137.055Z" fill="#293856"/>
<path d="M148.846 138.665C150.257 138.82 151.675 138.903 153.095 138.914C156.956 138.914 160.215 137.878 160.215 134.14C160.215 130.512 156.865 127.787 152.834 127.787C147.406 127.787 143.929 131.723 143.929 137.221C143.929 142.93 146.928 146.32 153.704 146.32C155.714 146.336 157.71 145.979 159.59 145.268V141.003C157.85 141.561 155.892 142.115 153.882 142.115C151.184 142.115 149.305 141.229 148.846 138.665ZM152.731 131.671C154.159 131.671 155.306 132.64 155.306 133.966C155.306 135.671 153.506 136.205 151.433 136.205C150.551 136.201 149.67 136.131 148.799 135.995C148.864 135.164 149.103 134.355 149.499 133.622C150.146 132.437 151.381 131.694 152.731 131.679V131.671Z" fill="#293856"/>
<g clip-path="url(#clip0_412_4445)">
<path d="M374.593 122.731H351.671C345.622 122.731 340.719 127.635 340.719 133.683C340.719 139.732 345.622 144.635 351.671 144.635H374.593C380.642 144.635 385.545 139.732 385.545 133.683C385.545 127.635 380.642 122.731 374.593 122.731Z" fill="#3AECBA"/>
<path d="M373.654 142.897C378.672 142.897 382.74 138.829 382.74 133.811C382.74 128.792 378.672 124.724 373.654 124.724C368.636 124.724 364.567 128.792 364.567 133.811C364.567 138.829 368.636 142.897 373.654 142.897Z" fill="white"/>
</g>
<rect x="54.4951" y="194.919" width="360" height="90" rx="12" fill="white"/>
<path fill-rule="evenodd" clip-rule="evenodd" d="M118.949 249.114L120.527 245.447C122.232 246.722 124.503 247.384 126.743 247.384C128.397 247.384 129.444 246.747 129.444 245.781C129.419 243.08 119.536 245.194 119.46 238.421C119.435 234.982 122.49 232.332 126.819 232.332C129.394 232.332 131.963 232.969 133.799 234.421L132.322 238.163C130.643 237.091 128.554 236.327 126.566 236.327C125.216 236.327 124.326 236.965 124.326 237.779C124.351 240.429 134.31 238.978 134.411 245.447C134.411 248.962 131.432 251.436 127.153 251.436C124.017 251.431 121.139 250.692 118.949 249.114ZM179.549 244.122C178.76 245.498 177.283 246.438 175.573 246.438C173.049 246.438 171.016 244.4 171.016 241.881C171.016 239.362 173.054 237.324 175.573 237.324C177.278 237.324 178.76 238.265 179.549 239.64L183.904 237.223C182.275 234.319 179.139 232.332 175.573 232.332C170.298 232.332 166.019 236.611 166.019 241.886C166.019 247.162 170.298 251.441 175.573 251.441C179.164 251.441 182.275 249.478 183.904 246.55L179.549 244.122ZM136.601 224.406H142.054V251.077H136.601V224.406ZM186.043 224.406V251.077H191.496V243.075L197.965 251.077H204.945L196.716 241.573L204.333 232.706H197.657L191.491 240.065V224.406H186.043Z" fill="black"/>
<path d="M158.255 244.172C157.466 245.472 155.837 246.438 154.001 246.438C151.477 246.438 149.444 244.4 149.444 241.881C149.444 239.362 151.482 237.324 154.001 237.324C155.837 237.324 157.466 238.341 158.255 239.666V244.172ZM158.255 232.711V234.876C157.365 233.374 155.149 232.327 152.827 232.327C148.038 232.327 144.269 236.555 144.269 241.856C144.269 247.157 148.038 251.436 152.827 251.436C155.144 251.436 157.359 250.394 158.255 248.886V251.051H163.707V232.711H158.255Z" fill="black"/>
<path fill-rule="evenodd" clip-rule="evenodd" d="M85.2475 244.147C85.2475 246.008 83.7453 247.511 81.884 247.511C80.0226 247.511 78.5204 246.003 78.5204 244.147C78.5204 242.291 80.0226 240.784 81.884 240.784H85.2475V244.147ZM86.9268 244.147C86.9268 242.286 88.429 240.784 90.2904 240.784C92.1517 240.784 93.6539 242.286 93.6539 244.147V252.554C93.6539 254.415 92.1517 255.917 90.2904 255.917C88.429 255.917 86.9268 254.415 86.9268 252.554V244.147Z" fill="#E01E5A"/>
<path fill-rule="evenodd" clip-rule="evenodd" d="M90.2904 230.647C88.429 230.647 86.9268 229.145 86.9268 227.284C86.9268 225.422 88.429 223.92 90.2904 223.92C92.1517 223.92 93.6539 225.422 93.6539 227.284V230.647H90.2904ZM90.2904 232.352C92.1517 232.352 93.6539 233.854 93.6539 235.715C93.6539 237.577 92.1517 239.079 90.2904 239.079H81.8587C79.9973 239.079 78.4951 237.572 78.4951 235.715C78.4951 233.859 79.9973 232.352 81.8587 232.352H90.2904Z" fill="#36C5F0"/>
<path fill-rule="evenodd" clip-rule="evenodd" d="M103.765 235.715C103.765 233.854 105.267 232.352 107.128 232.352C108.99 232.352 110.492 233.854 110.492 235.715C110.492 237.577 108.99 239.079 107.128 239.079H103.765V235.715ZM102.086 235.715C102.086 237.577 100.583 239.079 98.7221 239.079C96.8607 239.079 95.3585 237.577 95.3585 235.715V227.284C95.3585 225.422 96.8607 223.92 98.7221 223.92C100.583 223.92 102.086 225.422 102.086 227.284V235.715Z" fill="#2EB67D"/>
<path fill-rule="evenodd" clip-rule="evenodd" d="M98.7221 249.19C100.583 249.19 102.086 250.692 102.086 252.554C102.086 254.415 100.583 255.917 98.7221 255.917C96.8607 255.917 95.3585 254.415 95.3585 252.554V249.19H98.7221ZM98.7221 247.511C96.8607 247.511 95.3585 246.008 95.3585 244.147C95.3585 242.286 96.8607 240.784 98.7221 240.784H107.154C109.015 240.784 110.517 242.286 110.517 244.147C110.517 246.008 109.015 247.511 107.154 247.511H98.7221Z" fill="#ECB22E"/>
<g clip-path="url(#clip1_412_4445)">
<path d="M375.115 229.427H352.909C347.049 229.427 342.299 234.177 342.299 240.037C342.299 245.897 347.049 250.647 352.909 250.647H375.115C380.974 250.647 385.725 245.897 385.725 240.037C385.725 234.177 380.974 229.427 375.115 229.427Z" fill="#E6EAEF"/>
<path d="M353.666 248.963C358.527 248.963 362.468 245.022 362.468 240.16C362.468 235.299 358.527 231.358 353.666 231.358C348.804 231.358 344.863 235.299 344.863 240.16C344.863 245.022 348.804 248.963 353.666 248.963Z" fill="white"/>
</g>
<defs>
<linearGradient id="paint0_linear_412_4445" x1="248.722" y1="-14.4751" x2="220.277" y2="392.313" gradientUnits="userSpaceOnUse">
<stop stop-color="#DFFAFE"/>
<stop offset="0.56" stop-color="#DDE9FB"/>
<stop offset="1" stop-color="#DBDEF9"/>
</linearGradient>
<linearGradient id="paint1_linear_412_4445" x1="19350.9" y1="2373.17" x2="19350.9" y2="116.287" gradientUnits="userSpaceOnUse">
<stop stop-color="#0052CC"/>
<stop offset="1" stop-color="#2684FF"/>
</linearGradient>
<clipPath id="clip0_412_4445">
<rect width="45.1" height="22.96" fill="white" transform="translate(340.445 122.439)"/>
</clipPath>
<clipPath id="clip1_412_4445">
<rect width="43.46" height="22.14" fill="white" transform="translate(342.265 228.849)"/>
</clipPath>
</defs>
</svg>
